<svg width="17" height="16" viewBox="0 0 17 16" fill="none" xmlns="http://www.w3.org/2000/svg">
<path d="M8.12075 0.369719C8.15581 0.29759 8.20996 0.236875 8.2771 0.194426C8.34424 0.151976 8.42169 0.129482 8.50072 0.129482C8.57974 0.129482 8.6572 0.151976 8.72434 0.194426C8.79148 0.236875 8.84563 0.29759 8.88068 0.369719L10.7285 4.1815C10.8502 4.43239 11.0299 4.64944 11.2522 4.81404C11.4744 4.97864 11.7325 5.08586 12.0044 5.1265L16.1368 5.74238C16.2151 5.75394 16.2887 5.78757 16.3492 5.83949C16.4097 5.8914 16.4547 5.95953 16.4792 6.03615C16.5037 6.11278 16.5066 6.19485 16.4877 6.27308C16.4687 6.35131 16.4287 6.42258 16.372 6.47883L13.3835 9.44255C13.1864 9.63815 13.0389 9.8796 12.9538 10.1461C12.8686 10.4126 12.8484 10.6962 12.8947 10.9725L13.6003 15.1598C13.6141 15.2395 13.6056 15.3216 13.5759 15.3966C13.5461 15.4717 13.4962 15.5367 13.4319 15.5842C13.3676 15.6318 13.2915 15.66 13.2122 15.6656C13.1329 15.6712 13.0537 15.6541 12.9835 15.616L9.28945 13.638C9.04604 13.5079 8.77524 13.4399 8.50032 13.4399C8.2254 13.4399 7.95459 13.5079 7.71119 13.638L4.01792 15.616C3.94779 15.6538 3.86865 15.6708 3.7895 15.6651C3.71035 15.6594 3.63437 15.6311 3.5702 15.5836C3.50603 15.5361 3.45624 15.4712 3.4265 15.3962C3.39676 15.3213 3.38827 15.2394 3.40198 15.1598L4.10671 10.9733C4.15327 10.6969 4.1331 10.4131 4.04795 10.1465C3.9628 9.87978 3.81523 9.6382 3.61796 9.44255L0.629428 6.47965C0.572308 6.42346 0.531831 6.35207 0.512609 6.2736C0.493386 6.19513 0.49619 6.11274 0.520701 6.03581C0.545212 5.95889 0.590445 5.89052 0.651248 5.8385C0.71205 5.78647 0.785977 5.75289 0.864607 5.74157L4.99623 5.1265C5.26841 5.08617 5.5269 4.97909 5.74943 4.81448C5.97197 4.64986 6.15189 4.43263 6.27372 4.1815L8.12075 0.369719Z" fill="#E2E8F0"/>
</svg>
