<svg width="19" height="24" viewBox="0 0 19 24" fill="none" xmlns="http://www.w3.org/2000/svg">
<path d="M16.6626 12C15.7367 11.2684 14.5597 10.88 13.3519 10.9077H5.58836C5.23439 10.9161 4.88225 10.8571 4.55303 10.7342C4.22381 10.6114 3.92427 10.4271 3.67236 10.1925C3.42044 9.95798 3.22132 9.67791 3.08692 9.3691C2.95251 9.06029 2.88559 8.72908 2.89016 8.39532C2.88153 8.26541 2.88153 8.13511 2.89016 8.0052C2.99454 7.4088 3.32628 6.86883 3.82309 6.48668C4.31991 6.10454 4.94762 5.90651 5.58836 5.92978H13.236C13.8599 5.92926 14.4636 6.13764 14.9396 6.51777C15.4156 6.89789 15.7329 7.42504 15.8349 8.0052H18.3179C18.214 6.80198 17.6335 5.67969 16.6919 4.86147C15.7504 4.04325 14.5166 3.58901 13.236 3.58908H10.6206V0H8.55142V3.58908H5.58836C4.30776 3.58901 3.07403 4.04325 2.13246 4.86147C1.19088 5.67969 0.610417 6.80198 0.506472 8.0052C0.497843 8.13511 0.497843 8.26541 0.506472 8.39532C0.506472 9.02443 0.637919 9.64739 0.893308 10.2286C1.1487 10.8098 1.52303 11.338 1.99492 11.7828C2.94796 12.6812 4.24056 13.186 5.58836 13.186H13.4347C13.7858 13.1776 14.1352 13.2356 14.4622 13.3566C14.7892 13.4776 15.0873 13.659 15.3387 13.8902C15.5902 14.1215 15.79 14.3978 15.9264 14.703C16.0628 15.0081 16.133 15.336 16.1329 15.6671C16.1488 15.8436 16.1488 16.0211 16.1329 16.1977C16.0014 16.7467 15.6759 17.2373 15.2096 17.5889C14.7434 17.9406 14.1642 18.1323 13.5671 18.1326H5.787C5.18992 18.1323 4.61071 17.9406 4.14447 17.5889C3.67822 17.2373 3.35266 16.7467 3.22123 16.1977H0.721667C0.863923 17.3701 1.45879 18.4523 2.39292 19.2379C3.32705 20.0235 4.53515 20.4577 5.787 20.4577H8.55142V24H10.6206V20.4577H13.4347C14.6865 20.4577 15.8946 20.0235 16.8287 19.2379C17.7629 18.4523 18.3577 17.3701 18.5 16.1977V15.6671C18.498 14.9662 18.3323 14.2743 18.0148 13.6405C17.6972 13.0068 17.2356 12.4467 16.6626 12Z" fill="#1D1E20"/>
</svg>
